<svg xmlns="http://www.w3.org/2000/svg" viewBox="0 0 263 263"><defs><style>.cls-1{fill:#403d39;}.cls-2{fill:#eb5e28;}</style></defs><g id="Layer_2" data-name="Layer 2"><g id="Layer_1-2" data-name="Layer 1"><circle class="cls-1" cx="131.5" cy="131.5" r="131.5"/><path class="cls-2" d="M224,258.64l5.43-5.44V251l-2.72-3.26-8.15-9.93-4.19-7.61-2.48-5.12-4.19-11.49-3.26-11.17-1.6-7.23-1.11-16.44-.67-4.64V154.05l2.24-6.9,1.73-5.62,2-5.92,1.54-.79,3-2.85,2.74-3.19,1.4-5.81,3-9.34,2.52-6.65,2.18-5.45,3.26-8.09,3.45-8.18L233.49,78l3.14-4.81,4.49-5.9,2.18-4.16,3-5.34.84-2.47,1.24-4.48.76-3.34.86-2.57.66-2,1.91-3,3-3.15.95-2.57-5.91-2.48-5.62-1.71-6.1.85-2.86-.85-3.72-3.63-6.19,1.91-4.58-.09-5-1.82-3.05,5,.19,5.43.1,5.53-2.38,3L203.12,61.9,201,69.62l-3.33,5.15L191.87,85l-4.48,9.53-1.14,4-1.43,4.67-2.29,2.28-2.1,6.39-4.76,16.68-1.91,6.2s-.95,4-.95,4.38v6.1l-1.34,2.67-.47,9.25s-.58,4,0,5.43.52,11.69.52,11.69l-.17,7,.43,7.14.8,4,1,5.81,2.72,5,2.34,6,2.44,6.37,1.87,5.34,2.63,5.63,6.09,7.12,2.62,3.28.19,5.63,3.47,2.06,1.78,4.12,3.28,2.91,5.25,2.81,6,2.25,3.37,1.5,2.8.44Z"/><path class="cls-2" d="M143.12,245.33l-9.88,6.1-5.49-1.59-11.83-5.37-5.86-3.53-.73-6.23,3.17-7.56s3.9-18.43,4.27-18.55,2.07-7.81,2.07-7.81l.37-2.31.73-8.54.61-10.25,2.08-8.91.61-8.42,1.83-7.69,2.8-13.17.74-10.13L132,114.29l3.78-14,3.53-19.11,2-10.61.27-3.78.71-3.28,1.87-6.27,1-8.7,2-9.4.9-4.8.5-4.5,4.3-6.8,1.9-6.6v-5.5h3.4l3.9,1.2,3.4.6,1.9.3,3.31,2,1.89,2.2,2.5,1.6,1.4,2.9,2.1,1.6,3.4,3.13,1.5,1.27-2,8.2-1.8,4.4-2.5,8.1-1.6,6.2v5.3l-1.1,8.7s-1.9,1.7-1.9,2.9-1.2,12.8-1.2,12.8l-2.3,11.11-1,8.6-1.7,5.3-.7,2.9-1.4,6.3.6,6.9-4.2,8-1.7,2.3-1.2,23.7-3.1,8.9-1.6,11.2-1.3,9.3-3.3,17.4-1,2.3-.5,4.1-.6,10.6s-.6.2-1.5,2.5a22.58,22.58,0,0,0-1.2,4.9l-.3,7.31Z"/></g></g></svg>